SRRun01_grf
version=1
nRows=21
nColumns=19
inDegrees=no
endheader
time	ground_force_r_vx	ground_force_r_vy	ground_force_r_vz	ground_force_r_px	ground_force_r_py	ground_force_r_pz	ground_force_r_mx	ground_force_r_my	ground_force_r_mz	ground_force_l_vx	ground_force_l_vy	ground_force_l_vz	ground_force_l_px	ground_force_l_py	ground_force_l_pz	ground_force_l_mx	ground_force_l_my	ground_force_l_mz
    147.49900000	    121.57198636	    608.32568420	    -31.64860470	      0.85955201	      0.00000000	     -0.30293614	      0.00000815	     -0.08205386	      0.00002326	      0.00000000	      0.00000000	      0.00000000	      0.00000000	      0.00000000	      0.00000000	      0.00000000	      0.00000000	      0.00000000
    147.50000000	    120.73079647	    592.78808679	    -27.86902920	      0.85677947	      0.00000000	     -0.30228767	      0.00000809	      4.67853565	      0.00002285	      0.00000000	      0.00000000	      0.00000000	      0.00000000	      0.00000000	      0.00000000	      0.00000000	      0.00000000	      0.00000000
    147.50100000	    122.01039942	    577.25067149	    -23.41233947	      0.85374867	      0.00000000	     -0.30156840	      0.00000798	      9.07303667	      0.00002229	      0.00000000	      0.00000000	      0.00000000	      0.00000000	      0.00000000	      0.00000000	      0.00000000	      0.00000000	      0.00000000
    147.50200000	    125.14213337	    561.69918675	    -18.46327276	      0.85049689	      0.00000000	     -0.30083889	      0.00000783	     12.74032233	      0.00002158	      0.00000000	      0.00000000	      0.00000000	      0.00000000	      0.00000000	      0.00000000	      0.00000000	      0.00000000	      0.00000000
    147.50300000	    129.65309191	    546.12866148	    -13.25391290	      0.84707271	      0.00000000	     -0.30016364	      0.00000764	     15.38512987	      0.00002072	      0.00000000	      0.00000000	      0.00000000	      0.00000000	      0.00000000	      0.00000000	      0.00000000	      0.00000000	      0.00000000
    147.50400000	    134.92349206	    530.54630594	     -8.04785011	      0.84353170	      0.00000000	     -0.29960608	      0.00000744	     16.80416503	      0.00001975	      0.00000000	      0.00000000	      0.00000000	      0.00000000	      0.00000000	      0.00000000	      0.00000000	      0.00000000	      0.00000000
    147.50500000	    140.25875477	    514.97193097	     -3.12129921	      0.83993282	      0.00000000	     -0.29922322	      0.00000723	     16.90387772	      0.00001870	      0.00000000	      0.00000000	      0.00000000	      0.00000000	      0.00000000	      0.00000000	      0.00000000	      0.00000000	      0.00000000
    147.50600000	    144.96815776	    499.43616879	      1.25689236	      0.83633591	      0.00000000	     -0.29906080	      0.00000702	     15.70791715	      0.00001762	      0.00000000	      0.00000000	      0.00000000	      0.00000000	      0.00000000	      0.00000000	      0.00000000	      0.00000000	      0.00000000
    147.50700000	    148.44124859	    483.97744823	      4.84460363	      0.83280032	      0.00000000	     -0.29914936	      0.00000683	     13.35339631	      0.00001656	      0.00000000	      0.00000000	      0.00000000	      0.00000000	      0.00000000	      0.00000000	      0.00000000	      0.00000000	      0.00000000
    147.50800000	    150.21353138	    468.63880675	      7.44384483	      0.82938372	      0.00000000	     -0.29950150	      0.00000665	     10.07643474	      0.00001555	      0.00000000	      0.00000000	      0.00000000	      0.00000000	      0.00000000	      0.00000000	      0.00000000	      0.00000000	      0.00000000
    147.50900000	    150.01426777	    453.46522359	      8.91517286	      0.82614019	      0.00000000	     -0.30011067	      0.00000649	      6.18862131	      0.00001462	      0.00000000	      0.00000000	      0.00000000	      0.00000000	      0.00000000	      0.00000000	      0.00000000	      0.00000000	      0.00000000
    147.51000000	    147.79141641	    438.50159058	      9.18814387	      0.82311671	      0.00000000	     -0.30095132	      0.00000633	      2.04679907	      0.00001379	      0.00000000	      0.00000000	      0.00000000	      0.00000000	      0.00000000	      0.00000000	      0.00000000	      0.00000000	      0.00000000
    147.51100000	    143.71145537	    423.79102637	      8.26688382	      0.82034823	      0.00000000	     -0.30198074	      0.00000617	     -1.98098760	      0.00001306	      0.00000000	      0.00000000	      0.00000000	      0.00000000	      0.00000000	      0.00000000	      0.00000000	      0.00000000	      0.00000000
    147.51200000	    138.13471857	    409.37313409	      6.23018459	      0.81785212	      0.00000000	     -0.30314251	      0.00000598	     -5.55021309	      0.00001245	      0.00000000	      0.00000000	      0.00000000	      0.00000000	      0.00000000	      0.00000000	      0.00000000	      0.00000000	      0.00000000
    147.51300000	    131.56961974	    395.28199500	      3.22619514	      0.81562402	      0.00000000	     -0.30437125	      0.00000577	     -8.37186141	      0.00001194	      0.00000000	      0.00000000	      0.00000000	      0.00000000	      0.00000000	      0.00000000	      0.00000000	      0.00000000	      0.00000000
    147.51400000	    124.61143929	    381.54400237	     -0.53749910	      0.81363686	      0.00000000	     -0.30559813	      0.00000550	    -10.23838093	      0.00001153	      0.00000000	      0.00000000	      0.00000000	      0.00000000	      0.00000000	      0.00000000	      0.00000000	      0.00000000	      0.00000000
    147.51500000	    117.87293950	    368.17583618	     -4.80722094	      0.81184441	      0.00000000	     -0.30675625	      0.00000520	    -11.04087431	      0.00001120	      0.00000000	      0.00000000	      0.00000000	      0.00000000	      0.00000000	      0.00000000	      0.00000000	      0.00000000	      0.00000000
    147.51600000	    111.91480894	    355.18290333	     -9.29883928	      0.81018912	      0.00000000	     -0.30778521	      0.00000485	    -10.77585002	      0.00001094	      0.00000000	      0.00000000	      0.00000000	      0.00000000	      0.00000000	      0.00000000	      0.00000000	      0.00000000	      0.00000000
    147.51700000	    107.18376376	    342.55852376	    -13.71484626	      0.80861237	      0.00000000	     -0.30863458	      0.00000445	     -9.54116055	      0.00001073	      0.00000000	      0.00000000	      0.00000000	      0.00000000	      0.00000000	      0.00000000	      0.00000000	      0.00000000	      0.00000000
    147.51800000	    103.96507525	    330.28413112	    -17.76218046	      0.80706474	      0.00000000	     -0.30926618	      0.00000404	     -7.52199482	      0.00001056	      0.00000000	      0.00000000	      0.00000000	      0.00000000	      0.00000000	      0.00000000	      0.00000000	      0.00000000	      0.00000000
    147.51900000	    102.35450478	    318.33080101	    -21.16998972	      0.80551336	      0.00000000	     -0.30965546	      0.00000360	     -4.96877755	      0.00001041	      0.00000000	      0.00000000	      0.00000000	      0.00000000	      0.00000000	      0.00000000	      0.00000000	      0.00000000	      0.00000000
